<?xml version="1.0" encoding="UTF-8" standalone="no"?>
<!-- Created with Inkscape (http://www.inkscape.org/) -->

<svg
   xmlns:dc="http://purl.org/dc/elements/1.1/"
   xmlns:cc="http://creativecommons.org/ns#"
   xmlns:rdf="http://www.w3.org/1999/02/22-rdf-syntax-ns#"
   xmlns:svg="http://www.w3.org/2000/svg"
   xmlns="http://www.w3.org/2000/svg"
   xmlns:sodipodi="http://sodipodi.sourceforge.net/DTD/sodipodi-0.dtd"
   xmlns:inkscape="http://www.inkscape.org/namespaces/inkscape"
   width="16.913324mm"
   height="16.966995mm"
   viewBox="0 0 59.929102 60.119274"
   id="svg4171"
   version="1.1"
   inkscape:version="0.91 r13725"
   sodipodi:docname="kt-logo-white.svg">
  <defs
     id="defs4173" />
  <sodipodi:namedview
     id="base"
     pagecolor="#ffffff"
     bordercolor="#666666"
     borderopacity="1.0"
     inkscape:pageopacity="0.0"
     inkscape:pageshadow="2"
     inkscape:zoom="3.959798"
     inkscape:cx="34.209406"
     inkscape:cy="52.656643"
     inkscape:document-units="px"
     inkscape:current-layer="layer1"
     showgrid="false"
     fit-margin-top="0"
     fit-margin-left="0"
     fit-margin-right="0"
     fit-margin-bottom="0"
     inkscape:window-width="1920"
     inkscape:window-height="1043"
     inkscape:window-x="1920"
     inkscape:window-y="0"
     inkscape:window-maximized="1" />
  <metadata
     id="metadata4176">
    <rdf:RDF>
      <cc:Work
         rdf:about="">
        <dc:format>image/svg+xml</dc:format>
        <dc:type
           rdf:resource="http://purl.org/dc/dcmitype/StillImage" />
        <dc:title></dc:title>
      </cc:Work>
    </rdf:RDF>
  </metadata>
  <g
     inkscape:label="Layer 1"
     inkscape:groupmode="layer"
     id="layer1"
     transform="translate(0,-992.24293)">
    <path
       style="fill:#ffffff;fill-opacity:1;stroke:none;stroke-width:12;stroke-linejoin:round;stroke-miterlimit:4;stroke-dasharray:none;stroke-opacity:1"
       d="m 0.0291,1020.4622 12.9,0 0,-13 0,-2 4,0 0,2 0,10.1715 11.58575,-11.5858 c 0.3751,-0.375 0.88381,-0.5857 1.41425,-0.5857 l 12.12949,0 c 0.65402,-0.9393 1.72597,-1.4994 2.87051,-1.5 1.13382,10e-4 2.21384,0.5617 2.86719,1.5 l 6.81132,0 c -19.08126,-26.10717 -53.74725,-9.52345 -54.57851,15 z"
       id="path4242"
       inkscape:connector-curvature="0"
       sodipodi:nodetypes="ccccccccsccccc" />
    <path
       style="fill:#ffffff;fill-opacity:1;stroke:none;stroke-width:12;stroke-linejoin:round;stroke-miterlimit:4;stroke-dasharray:none;stroke-opacity:1"
       d="m 30.75761,1009.4622 -13,13 7.92697,7.927 1.31619,-2.185 c 0.0905,-0.1501 0.25288,-0.2419 0.42813,-0.242 0.22471,-10e-5 0.4219,0.1497 0.48204,0.3662 l 1.64882,5.936 1.7836,1.7835 c 0.37505,0.3751 0.58574,0.8839 0.58574,1.4143 l 0,14.9 c 15.77128,-1.025 27.9825,-14.1206 28,-29.9 -0.009,-4.5029 -1.03153,-8.9461 -2.9918,-13 l -9.1377,0 c -0.23675,0.3381 -0.52193,0.6508 -0.8705,0.8672 l 0,27.1328 0,2 -4,0 0,-2 0,-27.1295 c -0.34488,-0.23 -0.63172,-0.5315 -0.86719,-0.8705 z"
       id="path4240"
       inkscape:connector-curvature="0"
       sodipodi:nodetypes="cccccsccscccccccccccc" />
    <path
       style="fill:#ffffff;fill-opacity:1;stroke:none;stroke-width:12;stroke-linejoin:round;stroke-miterlimit:4;stroke-dasharray:none;stroke-opacity:1"
       d="m 0,1024.4622 c 1.01845,14.9773 12.84271,26.8962 27.9291,27.8979 l 0,-14.0694 -1.11132,-1.1113 -6.16309,-1.5828 c -0.42961,-0.1104 -0.51356,-0.6839 -0.13359,-0.9127 l 2.37226,-1.4289 -5.96426,-5.9643 0,10.1715 0,2 -4,0 0,-2 0,-13 z"
       id="path4142"
       inkscape:connector-curvature="0"
       sodipodi:nodetypes="ccccsccccccccc" />
  </g>
</svg>
